<?xml version="1.0" encoding="utf-8"?>
<!-- Generator: Adobe Illustrator 16.0.0, SVG Export Plug-In . SVG Version: 6.00 Build 0)  -->
<!DOCTYPE svg PUBLIC "-//W3C//DTD SVG 1.1//EN" "http://www.w3.org/Graphics/SVG/1.1/DTD/svg11.dtd">
<svg version="1.1" id="레이어_1" xmlns="http://www.w3.org/2000/svg" xmlns:xlink="http://www.w3.org/1999/xlink" x="0px"
	 y="0px" width="221px" height="28px" viewBox="0 0 221 28" enable-background="new 0 0 221 28" xml:space="preserve">
<g>
	<g>
		<path fill="#A2D4D3" d="M181.329,22.67c-1.587-2.365-3.535-4.912-5.928-7.338c-2.277,2.846-5.031,5.541-8.205,7.518l-2.518-2.064
			c6.559-3.773,11.59-11.83,12.667-16.231h-9.223V1.588H180.4c0.957,0,1.498,0.482,1.257,1.617
			c-0.539,2.579-2.006,5.961-4.222,9.314c3.084,2.932,4.912,5.45,6.708,7.877L181.329,22.67z M186.03,28V0h3.834v28H186.03z"/>
		<path fill="#A2D4D3" d="M218.216,13.808c-2.965,0.39-5.987,0.509-8.953,0.568v6.531H221v2.963h-27.252v-2.963h11.681v-6.5h-8.175
			V1.32h19.824v2.965h-15.992v7.186h3.504c4.433,0,8.625-0.059,13.626-0.688V13.808L218.216,13.808z"/>
	</g>
	<g>
		<g>
			<path fill="#ECB7A4" d="M123.818,24.516v3.082h-2.699v-3.082h-7.396v-1.787l7.715-11.668h2.359v11.374h2.338v2.082H123.818z
				 M116.869,22.434h4.25v-6.441L116.869,22.434z"/>
			<path fill="#ECB7A4" d="M130.107,20.752V17.48h3.932v3.271H130.107z"/>
			<path fill="#ECB7A4" d="M140.688,27.768V15.566h-2.826v-2.084c1.869,0,3.018-0.7,2.996-2.527h2.508v16.813H140.688z"/>
			<path fill="#ECB7A4" d="M152.844,28c-2.742,0-4.889-1.764-5.525-4.207c-0.682-2.596-0.49-6.379,0.381-8.758
				c0.852-2.147,2.912-4.104,5.463-4.104c2.783,0,4.994,2,5.377,5.188h-2.699c-0.361-1.807-1.254-3.039-2.615-3.039
				c-1.828,0-3.379,2.507-3.484,4.613c0.893-0.639,1.955-1.127,3.102-1.127c3.295,0,5.676,2.357,5.676,5.568
				C158.518,25.301,156.266,28,152.844,28z M152.822,18.711c-1.85,0-2.996,1.596-2.996,3.572s1.146,3.57,2.975,3.57
				c1.85,0,2.998-1.596,2.998-3.57C155.799,20.35,154.693,18.711,152.822,18.711z"/>
		</g>
		<g>
			<path fill="#ECB7A4" d="M119.883,0c0,0-4.301,3.57-4.031,6.115c0.123,1.156,1.188,1.982,4.031,2.283
				c2.846-0.301,3.912-1.125,4.033-2.283C124.186,3.57,119.883,0,119.883,0z"/>
		</g>
		<g>
			<path fill="#ECB7A4" d="M136.133,0c0,0-4.301,3.57-4.035,6.115c0.123,1.156,1.189,1.982,4.035,2.283
				c2.842-0.301,3.908-1.127,4.031-2.283C140.432,3.57,136.133,0,136.133,0z"/>
		</g>
		<g>
			<path fill="#ECB7A4" d="M152.379,0c0,0-4.301,3.57-4.033,6.115c0.123,1.156,1.189,1.982,4.033,2.283
				c2.844-0.301,3.91-1.127,4.033-2.283C156.68,3.57,152.379,0,152.379,0z"/>
		</g>
	</g>
	<g>
		<path fill="#FFFFFF" d="M9.489,6.464c-0.648,5.294-3.457,9.885-8.283,12.568L0,17.97c4.231-2.035,6.914-6.5,7.49-9.993H1.458
			V6.464H9.489z M12.478,22.183V5.51h1.783v16.673H12.478z"/>
		<path fill="#FFFFFF" d="M30.316,14.873h-1.783v-3.998h-3.079c-0.306,2.107-1.89,3.512-4.321,3.512
			c-2.701,0-4.357-1.747-4.357-4.268c0-2.484,1.656-4.285,4.357-4.285c2.431,0,3.998,1.44,4.321,3.511h3.079V5.51h1.783V14.873z
			 M21.133,7.383c-1.62,0-2.575,1.206-2.575,2.736s0.955,2.719,2.575,2.719c1.657,0,2.611-1.188,2.611-2.719
			S22.79,7.383,21.133,7.383z M28.534,22.183v-4.375h-9.471v-1.513h11.253v5.888H28.534z"/>
		<path fill="#FFFFFF" d="M43.923,18.51c-3.115,0.522-4.7,0.558-7.544,0.594h-3.907v-1.512h3.637v-6.41h1.765v6.41
			c1.765-0.019,3.439-0.127,6.05-0.576V18.51z M42.267,6.464c0,2.467-0.486,7.347-0.756,9.146h-1.764
			c0.306-1.836,0.612-5.689,0.648-7.634h-6.626V6.464H42.267z M46.336,12.892v9.291h-1.783V5.51h1.783v5.87h2.773v1.512H46.336z"/>
		<path fill="#FFFFFF" d="M57.564,9.201V7.725h8.643v1.477H57.564z M61.975,15.593c-1.962,0-3.475-1.314-3.475-2.971
			s1.513-2.953,3.475-2.953c1.999,0,3.511,1.297,3.511,2.953S63.974,15.593,61.975,15.593z M59.652,7.185V5.689h4.646v1.495H59.652z
			 M61.975,11.146c-0.954,0-1.729,0.612-1.729,1.477c0,0.882,0.774,1.477,1.729,1.477c0.99,0,1.783-0.595,1.783-1.477
			C63.758,11.758,62.965,11.146,61.975,11.146z M66.692,22.453c-3.727,0-5.833-1.225-5.833-3.098c0-1.908,2.106-3.114,5.833-3.114
			c3.745,0,5.87,1.206,5.87,3.114C72.563,21.229,70.438,22.453,66.692,22.453z M66.692,17.699c-2.557,0-4.051,0.648-4.051,1.656
			c0,1.026,1.495,1.657,4.051,1.657c2.539,0,4.087-0.631,4.087-1.657C70.78,18.348,69.231,17.699,66.692,17.699z M67.143,15.413
			V5.689h1.747v4.52h1.801V5.51h1.8v10.443h-1.8v-4.231h-1.801v3.691H67.143z"/>
		<path fill="#FFFFFF" d="M74.826,14.873V13.36h7.202v-1.909h-5.042V5.906h11.631v1.53h-9.831v2.503H81.2
			c2.484,0,5.365-0.036,8.103-0.36v1.548c-1.765,0.217-3.619,0.289-5.492,0.324v1.909h7.22v1.513H74.826z M82.928,22.489
			c-3.727,0-6.05-1.152-6.05-3.241c0-2.197,2.323-3.259,6.05-3.259c3.709,0,6.068,1.062,6.068,3.259
			C88.996,21.408,86.637,22.489,82.928,22.489z M82.928,17.501c-2.539,0-4.285,0.595-4.285,1.747c0,1.134,1.746,1.746,4.285,1.746
			c2.539,0,4.303-0.612,4.303-1.746C87.231,18.096,85.467,17.501,82.928,17.501z"/>
		<path fill="#FFFFFF" d="M103.917,18.149c-3.115,0.522-4.88,0.559-7.725,0.595h-3.907v-1.513h3.926c2.395,0,4.393,0,7.706-0.576
			V18.149z M97.58,14.477c-2.521,0-4.448-1.801-4.448-4.304c0-2.484,1.928-4.303,4.448-4.303s4.411,1.818,4.411,4.303
			C101.991,12.676,100.1,14.477,97.58,14.477z M97.58,7.454c-1.477,0-2.647,1.116-2.647,2.719s1.171,2.719,2.647,2.719
			c1.513,0,2.665-1.116,2.665-2.719S99.092,7.454,97.58,7.454z M104.602,22.183V5.51h1.781v16.673H104.602z"/>
	</g>
</g>
</svg>
