<?xml version="1.0" encoding="utf-8"?>
<!-- Generator: Adobe Illustrator 15.0.0, SVG Export Plug-In . SVG Version: 6.00 Build 0)  -->
<!DOCTYPE svg PUBLIC "-//W3C//DTD SVG 1.1//EN" "http://www.w3.org/Graphics/SVG/1.1/DTD/svg11.dtd">
<svg version="1.1" id="Layer_1" xmlns="http://www.w3.org/2000/svg" xmlns:xlink="http://www.w3.org/1999/xlink" x="0px" y="0px"
	 width="178px" height="28px" viewBox="0 0 178 28" enable-background="new 0 0 178 28" xml:space="preserve">
<g>
	<path fill="#424143" d="M76.266,16.912v-2.799h11.03v-2.688h3.621v2.688h11.086v2.799H76.266z M99.854,13.037
		c-2.147-0.932-6.59-1.922-11.06-2.486c-3.364,1.045-6.985,1.695-10.097,2.092l-1.527-2.488c6.563-0.904,11.624-2.094,14.566-3.791
		H80.141V3.563h16.771c1.104,0,1.695,0.99,0.936,1.84c-1.104,1.273-2.574,2.318-4.242,3.195c2.938,0.51,5.854,1.217,7.381,1.813
		L99.854,13.037z M99.202,28c-2.206-1.357-7.382-3.422-10.974-4.439c-2.97,1.979-6.447,3.252-9.418,3.931l-1.642-2.433
		c5.572-1.131,10.21-3.902,12.162-6.674h4.07c-0.648,1.104-1.44,2.092-2.375,2.969c3.564,1.131,7.554,2.771,9.675,4.104L99.202,28z
		 M83.732,2.717V0h10.804v2.717H83.732z"/>
	<path fill="#424143" d="M118.914,14.85v1.697h7.607v6.561h-15.33v1.074h16.147v2.771h-19.771v-6.645h15.356v-0.963h-15.356v-2.804
		h7.722v-1.694h-11.031v-2.802h25.74v2.802L118.914,14.85L118.914,14.85z M107.572,10.352V0.99h3.619v2.234h11.852V0.99h3.62v9.361
		L107.572,10.352L107.572,10.352z M123.043,5.996h-11.852V7.58h11.852V5.996z"/>
</g>
<g>
	<path fill="#FCD1B9" d="M7.652,27.676v-5.875H0v-1.607h17.223v1.607H9.549v5.875H7.652z M8.609,18.51
		c-3.922,0-6.523-1.686-6.523-4.208c0-2.564,2.604-4.191,6.523-4.191c3.904,0,6.545,1.627,6.545,4.191
		C15.154,16.824,12.514,18.51,8.609,18.51z M8.609,11.717c-2.773,0-4.629,1.109-4.629,2.584c0,1.492,1.855,2.601,4.629,2.601
		s4.65-1.106,4.65-2.601C13.262,12.826,11.385,11.717,8.609,11.717z"/>
	<path fill="#FCD1B9" d="M28.738,23.521c0,0-2.641,0.537-5.701,0.537h-3.904v-7.675h6.182V12.5h-6.18v-1.607h8.073v7.119h-6.161
		v4.459h1.99c2.889,0,5.701-0.557,5.701-0.557V23.521z M30.846,27.676V9.955h1.895v17.721H30.846z"/>
	<path fill="#FCD1B9" d="M35.227,19.906v-1.607h7.652V16.27h-5.357v-5.893h12.361v1.627H39.436v2.658H42
		c2.641,0,5.702-0.037,8.611-0.383v1.646c-1.875,0.229-3.848,0.308-5.836,0.345v2.026h7.673V19.9L35.227,19.906L35.227,19.906z
		 M43.836,28c-3.96,0-6.43-1.225-6.43-3.445c0-2.334,2.47-3.461,6.43-3.461c3.941,0,6.449,1.127,6.449,3.461
		C50.285,26.852,47.777,28,43.836,28z M43.836,22.699c-2.697,0-4.555,0.631-4.555,1.855c0,1.204,1.857,1.854,4.555,1.854
		c2.698,0,4.573-0.648,4.573-1.854C48.409,23.33,46.534,22.699,43.836,22.699z"/>
	<path fill="#FCD1B9" d="M61.688,23.063c0,0-2.065,0.519-4.554,0.519H54.36V10.973h1.914v11.02h0.861
		c2.526,0,4.555-0.535,4.555-0.535L61.688,23.063L61.688,23.063z M63.162,26.947v-9.262h-4.096v-1.607h4.096v-5.76h1.875v16.629
		H63.162z M66.913,27.676V9.955h1.913v17.721H66.913z"/>
	<g>
		<path fill="#FCD1B9" d="M8.609,0c0,0-4.063,3.373-3.809,5.777C4.916,6.871,5.923,7.65,8.609,7.936
			c2.688-0.285,3.695-1.064,3.81-2.158C12.674,3.373,8.609,0,8.609,0z"/>
	</g>
	<g>
		<path fill="#FCD1B9" d="M26.271,0c0,0-4.063,3.373-3.811,5.777c0.115,1.094,1.123,1.873,3.811,2.158
			c2.686-0.285,3.693-1.064,3.809-2.158C30.334,3.373,26.271,0,26.271,0z"/>
	</g>
	<g>
		<path fill="#FCD1B9" d="M43.932,0c0,0-4.063,3.373-3.809,5.777c0.115,1.094,1.122,1.873,3.809,2.158
			c2.687-0.285,3.694-1.064,3.81-2.158C47.995,3.373,43.932,0,43.932,0z"/>
	</g>
	<g>
		<path fill="#FCD1B9" d="M61.594,0c0,0-4.064,3.373-3.811,5.777c0.115,1.094,1.123,1.873,3.811,2.158
			c2.686-0.285,3.692-1.064,3.809-2.158C65.656,3.373,61.594,0,61.594,0z"/>
	</g>
</g>
<g>
	<path fill="#A5DAD9" d="M143.466,21.895l-0.383-5.758l-5.449,0.385c-0.356,0-0.62-0.141-0.786-0.424
		c-0.166-0.281-0.25-0.602-0.25-0.959c0-0.332,0.084-0.646,0.25-0.938c0.166-0.295,0.43-0.439,0.786-0.439l5.371-0.385l-0.383-5.91
		c0-0.332,0.142-0.576,0.422-0.73c0.281-0.15,0.603-0.229,0.961-0.229c0.33,0,0.646,0.084,0.938,0.25s0.439,0.402,0.439,0.711
		l0.385,5.832l5.449-0.385c0.307,0,0.537,0.148,0.691,0.441c0.152,0.295,0.229,0.609,0.229,0.939c0,0.359-0.076,0.68-0.229,0.961
		c-0.154,0.279-0.387,0.422-0.691,0.422l-5.373,0.383l0.385,5.834c0,0.383-0.146,0.67-0.44,0.863
		c-0.293,0.191-0.606,0.287-0.938,0.287c-0.358,0-0.679-0.096-0.959-0.287C143.607,22.564,143.466,22.277,143.466,21.895z"/>
	<path fill="#A5DAD9" d="M172.335,10.705c0.634-1.615,1.136-2.855,1.504-3.721c0.367-0.861,0.683-1.475,0.94-1.838
		c0.263-0.361,0.507-0.525,0.734-0.49c0.228,0.035,0.547,0.139,0.955,0.305c0.594,0.281,0.912,0.652,0.959,1.107
		s-0.049,0.93-0.285,1.428c-0.215,0.506-0.49,1.002-0.83,1.492c-0.342,0.49-0.563,0.918-0.67,1.289
		c-0.393,0.857-0.772,1.789-1.146,2.795c-0.373,1.008-0.673,1.918-0.897,2.733c-0.285,0.959-0.42,2.075-0.404,3.348
		c0.016,1.271,0.296,2.348,0.842,3.223c0.285,0.375,0.375,0.754,0.268,1.135c-0.109,0.385-0.34,0.668-0.693,0.854
		c-0.354,0.189-0.78,0.232-1.282,0.14c-0.505-0.097-0.996-0.433-1.476-1.004c-0.139-0.213-0.236-0.424-0.297-0.633
		c-0.061-0.21-0.119-0.412-0.184-0.607c-0.031-0.215-0.078-0.437-0.135-0.655c-0.057-0.224-0.148-0.465-0.275-0.728
		c-0.266,0.258-0.595,0.547-0.99,0.867c-0.396,0.319-0.885,0.612-1.465,0.883c-0.551,0.25-1.178,0.431-1.883,0.539
		c-0.703,0.108-1.468,0.076-2.293-0.101c-1.125-0.239-2.146-0.637-3.063-1.186c-0.916-0.551-1.676-1.242-2.283-2.08
		c-0.58-0.83-0.975-1.797-1.182-2.902c-0.211-1.104-0.168-2.33,0.12-3.682c0.375-1.752,1.136-3.041,2.281-3.867
		c1.144-0.828,2.474-1.289,3.983-1.385c1.49-0.125,3.053,0.07,4.683,0.592C169.499,9.072,170.986,9.789,172.335,10.705z
		 M170.38,15.43c0.14-0.283,0.233-0.576,0.287-0.881c0.054-0.303,0.112-0.684,0.185-1.139c-0.754-0.5-1.697-1.018-2.826-1.547
		c-1.131-0.529-2.241-0.873-3.332-1.025c-1.123-0.139-2.125-0.004-3.008,0.395c-0.886,0.4-1.47,1.262-1.752,2.588
		c-0.365,1.701-0.209,3.107,0.469,4.223c0.68,1.11,1.643,1.804,2.895,2.069c1.352,0.289,2.615,0.123,3.795-0.502
		S169.368,17.594,170.38,15.43z"/>
</g>
</svg>
